# xmcd CD database file
#
# Track frame offsets:
#	150
#	27602
#	49363
#	66956
#	89547
#	106997
#	136594
#	151381
#	168268
#	186472
#	203693
#	220779
#	231405
#	255293
#	265206
#	282202
#
# Disc length: 3934 seconds
#
# Revision: 0
# Processed by: cddbd v1.5.2PL0 Copyright (c) Steve Scherf et al.
# Submitted via: CDex 1.70beta2
#
DISCID=e80f5c10
DTITLE=Various Artist - Les Grand Voix Du Blues CD 2
DYEAR=1900
DGENRE=Blues
TTITLE0=Marcus Miller Feat. Eric Clapton - Silver Rain
TTITLE1=Lucky Peterson - Is It Because I'm Black
TTITLE2=Popa Chubby - Preacher Man
TTITLE3=Cyril Lance and Johnny Neel - When I First Met You
TTITLE4=Bettye Lavette - You Don't Know Me At All
TTITLE5=Johnny Winter - Third Degree
TTITLE6=Shemekia Copeland - Something Heavy
TTITLE7=Tommy Castro - I'm Not Broken
TTITLE8=Bernard Allison - I Can't Get You Out Of My Mind
TTITLE9=Bill Perry- I Don't Know Nothin' But Love
TTITLE10=Captain Luke - Put On Your Red Dress
TTITLE11=Earl King - Let The Good Times Roll
TTITLE12=Pura Fe - Summertime
TTITLE13=Mighty Mo Rogers - John Brown Blues
TTITLE14=Marianne Faithful - It's All Over Now, Baby Blue
TTITLE15=The Blind Boys Of Alabama - He's Got What I Want
EXTD=
EXTT0=
EXTT1=
EXTT2=
EXTT3=
EXTT4=
EXTT5=
EXTT6=
EXTT7=
EXTT8=
EXTT9=
EXTT10=
EXTT11=
EXTT12=
EXTT13=
EXTT14=
EXTT15=
PLAYORDER=
